<svg id="Capa_1" data-name="Capa 1" xmlns="http://www.w3.org/2000/svg" xmlns:xlink="http://www.w3.org/1999/xlink" viewBox="0 0 256.5 256.49"><defs><style>.cls-1{fill:url(#Degradado_sin_nombre_10);}</style><linearGradient id="Degradado_sin_nombre_10" x1="6.85" y1="49.68" x2="314.7" y2="265.43" gradientUnits="userSpaceOnUse"><stop offset="0" stop-color="#006837"/><stop offset="0.1" stop-color="#00502a"/><stop offset="0.24" stop-color="#00331b"/><stop offset="0.39" stop-color="#001c0f"/><stop offset="0.56" stop-color="#000c07"/><stop offset="0.75" stop-color="#000302"/><stop offset="1"/></linearGradient></defs><path class="cls-1" d="M255.25,21.75H44.75a23,23,0,0,0-23,23v210.5a23,23,0,0,0,23,23h210.5a23,23,0,0,0,23-23V44.75A23,23,0,0,0,255.25,21.75ZM43.75,125.29h63.77l.42,70.8-64.19-.38Zm85.77,0H256.25V197l-126.31-.75ZM256.25,44.75v58.54H129.39L129,43.75H255.25A1,1,0,0,1,256.25,44.75Zm-211.5-1H107l.36,59.54H43.75V44.75A1,1,0,0,1,44.75,43.75Zm-1,211.5V217.71l64.32.39.23,38.15H44.75A1,1,0,0,1,43.75,255.25Zm211.5,1H130.3l-.23-38,126.18.75v36.27A1,1,0,0,1,255.25,256.25Z" transform="translate(-21.75 -21.75)"/></svg>